<?xml version="1.0" standalone="no"?>
<!DOCTYPE svg PUBLIC "-//W3C//DTD SVG 20010904//EN"
 "http://www.w3.org/TR/2001/REC-SVG-20010904/DTD/svg10.dtd">
<svg version="1.0" xmlns="http://www.w3.org/2000/svg"
 width="200.000000pt" height="200.000000pt" viewBox="0 0 200.000000 200.000000"
 preserveAspectRatio="xMidYMid meet">

<g transform="translate(0.000000,200.000000) scale(0.100000,-0.100000)"
fill="#000000" stroke="none">
<path d="M0 1000 l0 -1000 1000 0 1000 0 0 1000 0 1000 -1000 0 -1000 0 0
-1000z m1578 658 c3 -13 -13 -21 -70 -38 -326 -95 -534 -173 -766 -287 -146
-71 -192 -101 -192 -123 0 -19 28 -10 201 65 96 41 179 74 185 73 11 -3 -135
-282 -159 -304 -7 -6 -65 -35 -129 -65 -85 -39 -118 -59 -118 -71 0 -26 28
-22 105 12 74 33 88 36 83 17 -5 -22 -202 -377 -209 -377 -9 0 -47 90 -66 155
-14 51 -17 128 -21 513 l-4 452 579 -2 c533 -3 578 -4 581 -20z m-1 -490 c-5
-389 -10 -426 -70 -547 -38 -79 -148 -193 -224 -234 -117 -62 -316 -85 -448
-52 -72 18 -194 76 -220 105 -18 20 -17 22 9 88 14 37 66 155 114 262 82 181
91 196 124 212 35 17 287 96 376 118 49 12 85 43 80 68 -8 41 -125 17 -346
-69 -84 -34 -82 -33 -82 -15 0 20 121 211 170 268 36 42 50 50 133 77 82 26
279 73 347 83 14 2 29 1 34 -3 4 -4 6 -166 3 -361z"/>
</g>
</svg>
